<?xml version="1.0" encoding="utf-8"?>
<!-- Generator: Adobe Illustrator 25.2.3, SVG Export Plug-In . SVG Version: 6.00 Build 0)  -->
<svg version="1.1" id="Calque_1" xmlns="http://www.w3.org/2000/svg" xmlns:xlink="http://www.w3.org/1999/xlink" x="0px" y="0px"
	 viewBox="0 0 662.49377 160.78815" style="enable-background:new 0 0 662.49377 160.78815;" xml:space="preserve">
<style type="text/css">
	.st0{fill:#FFFFFF;}
	.st1{fill:#239173;}
</style>
<g>
	<g>
		<path class="st0" d="M210.25359,88.99448c2.36493-13.5451,13.86734-24.72527,28.37915-24.72527
			c7.84853,0,13.00804,3.0094,15.91003,7.52444l5.69841-31.17373h14.94147l-10.40198,56.16894
			c-2.73492,13.84699-12.42429,23.37936-30.34073,23.37936C216.27425,120.16822,207.459,105.549,210.25359,88.99448z
			 M251.42595,93.18543c1.50563-8.38374-4.08539-15.47853-11.71724-15.47853c-8.38559,0-14.18958,6.34105-15.26555,13.1136
			c-1.28896,7.95594,3.54832,15.69521,12.2543,15.69521C244.7608,106.51571,250.13515,100.49689,251.42595,93.18543z"/>
		<path class="st0" d="M276.43817,89.1019c2.68716-15.05073,16.76935-24.83268,30.74408-24.83268
			c14.62109,0,24.29562,8.27632,22.14551,19.34908c-1.82785,10.42828-12.14688,16.77118-25.58456,16.66377
			c-5.48358,0.10741-10.32086-1.1834-14.18958-2.68903c1.28897,5.91325,6.01883,9.78381,13.43768,9.78381
			c5.26694,0,9.56714-2.25752,13.0062-6.66514l11.2876,7.41702c-5.26694,7.2022-12.68396,12.03947-25.15494,12.03947
			C282.56625,120.16822,273.64359,104.7971,276.43817,89.1019z M291.48706,85.55358
			c3.01126,1.07597,6.66513,1.72045,11.07275,1.61304c8.06335,0.10741,11.9339-2.47234,12.47098-5.59101
			c0.42966-2.47234-2.36493-4.62244-7.52631-4.62244C300.94861,76.95316,294.71313,80.28666,291.48706,85.55358z"/>
		<path class="st0" d="M336.17059,89.1019c2.68716-15.05073,16.76935-24.83268,30.74408-24.83268
			c14.62109,0,24.29562,8.27632,22.14554,19.34908c-1.82788,10.42828-12.14688,16.77118-25.58459,16.66377
			c-5.48358,0.10741-10.32086-1.1834-14.18958-2.68903c1.28897,5.91325,6.01883,9.78381,13.43768,9.78381
			c5.26694,0,9.56714-2.25752,13.0062-6.66514l11.2876,7.41702c-5.26694,7.2022-12.68396,12.03947-25.15494,12.03947
			C342.29868,120.16822,333.37601,104.7971,336.17059,89.1019z M351.21948,85.55358
			c3.01126,1.07597,6.66513,1.72045,11.07275,1.61304c8.06335,0.10741,11.9339-2.47234,12.47098-5.59101
			c0.42966-2.47234-2.36493-4.62244-7.52631-4.62244C360.68106,76.95316,354.44556,80.28666,351.21948,85.55358z"/>
		<path class="st0" d="M393.53809,105.97865l33.10901-27.62727h-27.73465l2.36493-13.00804h47.51526L446.4277,78.5662
			l-33.10901,27.51985h28.80881l-2.25754,13.00804h-48.58939L393.53809,105.97865z"/>
		<path class="st0" d="M463.91364,65.34334c8.49301,0,11.82465,4.72986,9.56714,16.33968l-2.90201,14.83591
			c-1.39822,7.20219,0.32224,10.85793,6.12622,10.85793c5.591,0,9.67639-5.91325,11.18018-13.75993l4.94467-28.2736h14.94333
			L502.0766,98.4542c-0.96857,5.9114,1.18152,8.59857,5.26691,8.59857c8.6004,0,13.5451-9.13563,15.58783-20.85472
			c1.71857-9.3523,0.53705-15.91003-1.18341-20.85471h15.15814c1.18152,5.4836,2.47235,12.90063,0.53705,23.21964
			c-2.90198,16.23412-12.46912,31.60524-30.31442,31.60524c-8.60043,0-13.33029-2.68717-15.5878-7.63185
			c-4.83728,4.94468-11.18018,7.63185-18.5972,7.63185c-12.57837,0-20.42505-8.81525-17.41565-24.07895l2.47235-12.57838
			c0.86115-4.19279,0-5.37434-3.00943-5.37434h-1.61304l2.36493-12.79321H463.91364z"/>
		<path class="st0" d="M545.58044,89.1019c2.68903-15.05073,16.77118-24.83268,30.74597-24.83268
			c14.6192,0,24.29376,8.27632,22.14362,19.34908c-1.82599,10.42828-12.14685,16.77118-25.58453,16.66377
			c-5.48175,0.10741-10.31903-1.1834-14.18958-2.68903c1.29077,5.91325,6.02063,9.78381,13.43768,9.78381
			c5.26691,0,9.56714-2.25752,13.008-6.66514l11.2876,7.41702c-5.26874,7.2022-12.68579,12.03947-25.15491,12.03947
			C551.70856,120.16822,542.78589,104.7971,545.58044,89.1019z M560.63116,85.55358
			c3.0094,1.07597,6.66516,1.72045,11.07275,1.61304c8.06152,0.10741,11.93207-2.47234,12.46912-5.59101
			c0.42969-2.47234-2.36493-4.62244-7.52441-4.62244C570.09088,76.95316,563.85541,80.28666,560.63116,85.55358z"/>
		<path class="st0" d="M606.82928,89.60747c2.9101-16.59653,8.58966-48.98755,8.58966-48.98755h14.94147
			c0,0-2.57977,14.83405-5.05212,28.59398c3.65576-3.00941,8.2782-4.94468,13.5451-4.94468
			c16.76935,0,26.01422,14.08216,23.11224,30.74408c-2.36493,15.26556-14.40442,25.15492-27.62726,25.15492
			C615.07318,120.16822,603.91919,106.204,606.82928,89.60747z M647.88348,93.40211
			c1.39819-8.27818-3.65576-15.69521-12.46912-15.69521c-7.31152,0-13.5451,5.80399-14.72852,13.00619
			c-1.39636,8.27818,3.76312,16.01744,12.25427,16.01744C641.00348,106.73053,646.70007,100.49689,647.88348,93.40211z"/>
	</g>
	<g>
		<circle class="st1" cx="80.39407" cy="80.39407" r="80.39407"/>
		<g>
			<path class="st0" d="M25.39549,86.28233c2.07716-11.8969,12.17992-21.71663,24.9259-21.71663
				c6.8935,0,11.42518,2.64321,13.97405,6.60884l5.00503-27.38042h13.12334l-9.13623,49.33415
				c-2.40215,12.16205-10.91247,20.53448-26.6488,20.53448C30.68355,113.66276,22.94097,100.82244,25.39549,86.28233z
				 M61.55789,89.96331c1.32242-7.36358-3.58826-13.59505-10.29145-13.59505c-7.36521,0-12.46295,5.56945-13.408,11.5179
				c-1.13211,6.98784,3.11655,13.78537,10.76316,13.78537C55.70378,101.67152,60.42416,96.38509,61.55789,89.96331z"/>
			<path class="st0" d="M83.61695,86.82072c2.55598-14.57703,7.54443-43.0266,7.54443-43.0266h13.12334
				c0,0-2.26585,13.029-4.43735,25.11459c3.2109-2.64322,7.27087-4.343,11.8969-4.343
				c14.72879,0,22.84874,12.36861,20.29987,27.00305c-2.07715,13.408-12.65163,22.094-24.2655,22.094
				C90.85773,113.66276,81.06097,101.39775,83.61695,86.82072z M119.67554,90.15363
				c1.22807-7.27087-3.21089-13.78537-10.95184-13.78537c-6.42179,0-11.8969,5.09774-12.93629,11.42355
				c-1.22646,7.27087,3.30523,14.0684,10.76315,14.0684C113.63275,101.86021,118.63615,96.38509,119.67554,90.15363z"/>
		</g>
	</g>
</g>
</svg>
