<svg width="24" height="24" viewBox="0 0 24 24" fill="none" xmlns="http://www.w3.org/2000/svg">
<path d="M19.9999 2.75003C19.9998 2.6332 19.9724 2.518 19.9199 2.41362C19.8674 2.30925 19.7913 2.21857 19.6976 2.14883C19.6038 2.07909 19.4951 2.03221 19.38 2.01193C19.265 1.99166 19.1468 1.99854 19.0349 2.03203L9.03486 5.03203C8.88033 5.07827 8.74483 5.17309 8.64845 5.30243C8.55208 5.43177 8.49997 5.58873 8.49986 5.75003V15.627C7.85115 15.1754 7.06865 14.9566 6.27977 15.0063C5.49088 15.0561 4.74206 15.3714 4.15522 15.901C3.56837 16.4305 3.17806 17.1431 3.04783 17.9228C2.9176 18.7024 3.05512 19.5032 3.438 20.1947C3.82088 20.8863 4.42657 21.4278 5.15646 21.7313C5.88635 22.0347 6.69747 22.0821 7.45775 21.8658C8.21803 21.6495 8.88271 21.1822 9.34357 20.54C9.80443 19.8978 10.0343 19.1185 9.99586 18.329C9.99857 18.3028 9.9999 18.2764 9.99986 18.25V10.308L18.4999 7.75803V13.628C17.8511 13.1764 17.0687 12.9576 16.2798 13.0073C15.4909 13.0571 14.7421 13.3724 14.1552 13.902C13.5684 14.4315 13.1781 15.1441 13.0478 15.9238C12.9176 16.7034 13.0551 17.5042 13.438 18.1957C13.8209 18.8873 14.4266 19.4288 15.1565 19.7323C15.8864 20.0357 16.6975 20.0831 17.4577 19.8668C18.218 19.6505 18.8827 19.1832 19.3436 18.541C19.8044 17.8988 20.0343 17.1195 19.9959 16.33C19.9986 16.3034 19.9999 16.2767 19.9999 16.25V2.75003Z" fill="#bdbdbd"/>
</svg>
